<?xml version="1.0" encoding="UTF-8"?>
<svg id="Layer_1" data-name="Layer 1" xmlns="http://www.w3.org/2000/svg" viewBox="0 0 512 512">
  <defs>
    <style>
      .cls-1, .cls-2 {
        stroke-width: 0px;
      }

      .cls-2 {
        fill: #fff;
      }
    </style>
  </defs>
  <path class="cls-1" d="M0,266.46c0-6.93,0-13.86,0-20.8.21-2.72.46-5.43.63-8.15.95-14.94,3.28-29.67,7.04-44.14,14.6-56.3,44.66-102.64,90.28-138.69C135.79,24.78,178.9,7.3,226.78,1.66c15.84-1.87,31.74-2.19,47.69-.97,14.59,1.11,28.99,3.26,43.16,6.83,47.47,11.93,88.25,35.51,122.37,70.59,20.37,20.93,36.65,44.7,48.76,71.26,18.13,39.77,25.66,81.5,22.56,125.13-1.05,14.8-3.28,29.4-6.93,43.75-11.61,45.77-34.08,85.45-67.43,118.86-28.21,28.26-61.31,48.78-99.14,61.6-19.01,6.44-38.52,10.56-58.53,12.29-4.31.37-8.62.68-12.94,1.02h-20.8c-.53-.08-1.05-.21-1.58-.23-13.2-.52-26.28-2.14-39.2-4.84-57.53-12.02-105.4-40.49-143.75-84.91-18.71-21.67-33.13-46.01-43.57-72.69-8.77-22.41-14.27-45.6-16.43-69.57-.4-4.44-.69-8.89-1.04-13.33Z"/>
  <g>
    <path class="cls-2" d="M128.66,255.95c0,50.03,0,100.06,0,150.09,0,3.27.08,3.37,3.35,3.37,24.77,0,49.53,0,74.3,0,3.2,0,3.4-.19,3.42-3.38.03-6.65.02-13.3.07-19.94,0-.79-.24-1.93.53-2.3.88-.42,1.41.67,1.96,1.22,7.28,7.28,14.57,14.56,21.78,21.92,1.68,1.71,3.41,2.54,5.89,2.54,28.01-.08,56.01-.05,84.02-.05,2.49,0,4.97-.12,7.46-.38,28.56-3,51.5-27.58,51.73-56.32.31-38.31.1-76.62.06-114.93-.01-10.93-3.01-21.06-9.25-30.04-11.06-15.92-25.99-25.95-45.71-26.31-29.82-.55-59.67-.18-89.5-.24-1.74,0-2.96.73-4.14,1.9-7.03,6.95-14.09,13.87-21.18,20.77-.92.9-1.8,2.75-2.99,2.25-1.36-.57-.71-2.53-.71-3.88-.03-31.83-.02-63.66-.02-95.49q0-4.2-4.1-4.2c-24.18,0-48.37,0-72.55,0q-4.41,0-4.42,4.32c0,49.7,0,99.39,0,149.09ZM199.56,232.91c3.2-3.11,6.42-6.2,9.6-9.32,10.01-9.84,20.03-19.68,30-29.58,1.34-1.33,2.73-1.96,4.61-1.96,27.42.04,54.85-.16,82.27.09,25.31.23,46.19,21.12,46.33,46.42.21,37.72.21,75.45,0,113.18-.14,25.56-21.45,46.52-46.95,46.58-27.09.06-54.18,0-81.27.05-2.15,0-3.72-.61-5.26-2.16-12.22-12.34-24.54-24.58-36.79-36.89-.81-.81-1.34-1.91-2.1-3.02-1.42,1.53-1.08,2.56-1.08,3.47-.03,11.63-.01,23.27-.02,34.9,0,3.61-.05,3.65-3.58,3.66-17.2,0-34.4,0-51.6,0-3.95,0-3.96-.01-3.96-4,0-65.73,0-131.46,0-197.19,0-26.51,0-53.02,0-79.52,0-4.2,0-4.22,4.07-4.22,17.2,0,34.4,0,51.6,0,3.29,0,3.48.19,3.48,3.57,0,37.48,0,74.95,0,112.43,0,1.06,0,2.13,0,3.19.22.11.44.22.66.32Z"/>
    <path class="cls-2" d="M286.19,335.12c.26,0,.52,0,.78,0,0,11.88-.02,23.76.01,35.65,0,2.63.15,2.68,2.44,1.29,5.11-3.11,10.16-6.33,15.33-9.34,1.98-1.15,2.66-2.56,2.64-4.83-.12-15.04-.03-30.09-.2-45.13-.03-2.67.73-4.19,3.04-5.55,12.38-7.31,24.64-14.82,36.98-22.18,1.79-1.07,2.63-2.31,2.46-4.41-.49-6.38-.47-12.79-.46-19.19,0-1.85-.3-2.47-2.19-1.32-19.37,11.81-38.76,23.57-58.19,35.29-1.91,1.16-2.72,2.5-2.7,4.81.12,11.63.05,23.26.05,34.9Z"/>
    <path class="cls-2" d="M273.56,334.63c-.33-11.21-.04-22.42-.36-33.63-.09-2.97-1.13-4.62-3.59-6.12-18.83-11.55-37.59-23.21-56.37-34.85-2.01-1.25-2.41-1.07-2.41,1.26,0,6.23.15,12.46.03,18.69-.05,2.45.74,3.93,2.86,5.23,12.2,7.43,24.29,15.03,36.47,22.49,1.91,1.17,2.69,2.49,2.67,4.79-.1,15.2-.03,30.4-.09,45.6,0,1.89.58,3.04,2.27,3.97,5.17,2.84,10.25,5.84,15.36,8.76,2.85,1.63,3.14,1.46,3.14-1.8,0-11.46,0-22.92,0-34.38Z"/>
    <path class="cls-2" d="M279.9,284.73c.4-.19.94-.41,1.43-.7,2.91-1.77,5.81-3.56,8.71-5.34,16.48-10.16,32.96-20.32,49.43-30.49,2.46-1.52,2.44-1.76-.04-3.19-5.11-2.94-10.28-5.79-15.31-8.87-2.07-1.27-3.62-1.15-5.65.13-11.73,7.41-23.58,14.63-35.31,22.05-2,1.26-3.47,1.16-5.42,0-12.49-7.45-25.05-14.77-37.55-22.19-1.54-.91-2.75-1.03-4.34-.1-5.23,3.08-10.5,6.07-15.82,8.98-1.99,1.09-1.68,1.67.02,2.73,19.24,12.02,38.44,24.09,57.66,36.15.63.4,1.25.83,2.19.86Z"/>
    <path class="cls-2" d="M237.03,335.15h-.07c0-4.4-.06-8.8.03-13.2.04-1.79-.61-2.91-2.15-3.82-7-4.14-13.94-8.38-20.92-12.56-2.3-1.38-2.6-1.21-2.66,1.49-.17,8.38-.25,16.77-.46,25.15-.05,1.88.61,3.08,2.21,4.07,7.35,4.53,14.65,9.13,21.94,13.77,1.66,1.06,2.13.66,2.11-1.19-.05-4.57-.02-9.13-.02-13.7Z"/>
    <path class="cls-2" d="M349.83,320.01c-.07,0-.13,0-.2,0,0-4.65-.05-9.3.02-13.95.03-2.06-.53-2.23-2.21-1.16-7.06,4.53-14.16,8.99-21.29,13.42-1.48.92-2.27,2-2.29,3.8-.09,8.55-.28,17.1-.39,25.66-.03,2.32.4,2.54,2.45,1.4,7.25-4.05,14.46-8.17,21.74-12.17,1.6-.88,2.22-1.99,2.19-3.78-.09-4.4-.03-8.8-.03-13.21Z"/>
    <path class="cls-2" d="M280.17,241.53c.59-.26,1.15-.43,1.64-.72,7.43-4.42,14.84-8.87,22.27-13.26,1.6-.94,1.01-1.47-.16-2.19-7.29-4.48-14.58-8.97-21.83-13.51-1.28-.8-2.33-.88-3.66-.07-7.23,4.42-14.5,8.78-21.79,13.11-1.62.96-1.86,1.63-.06,2.69,7.29,4.32,14.54,8.72,21.81,13.07.56.34,1.17.59,1.78.89Z"/>
  </g>
</svg>