<?xml version="1.0" encoding="UTF-8"?>
<svg id="Layer_1" data-name="Layer 1" xmlns="http://www.w3.org/2000/svg" viewBox="0 0 1057.51 241.11">
  <defs>
    <style>
      .cls-1 {
        fill: #fff;
        stroke-width: 0px;
      }
    </style>
  </defs>
  <path class="cls-1" d="M104.65,3.7c92.7,0,139.05,38.95,139.05,116.83s-46.35,118.85-139.05,118.85H4.99v-3.37l25.93-34.68V41.75L4.99,7.07v-3.37h99.66ZM104.65,232.65c25.36,0,44.39-10.15,57.07-30.47,12.68-20.31,19.02-47.3,19.02-80.97s-6.4-59.7-19.19-80.13c-12.79-20.42-31.76-30.64-56.9-30.64h-14.14v222.22h14.14Z"/>
  <path class="cls-1" d="M391.85,200.33l4.38,3.03c-18.41,26.26-44.67,39.39-78.79,39.39-23.12,0-42.93-8.42-59.43-25.25-16.5-16.83-24.75-37.04-24.75-60.6,0-22.22,7.91-42.09,23.74-59.59,15.82-17.51,35.86-26.26,60.1-26.26,12.12,0,22.84,1.97,32.15,5.89,9.31,3.93,16.33,8.59,21.04,13.97,4.71,5.39,8.53,11.34,11.45,17.84,2.91,6.51,4.71,12.01,5.39,16.5.67,4.49.89,8.08.67,10.77l-95.28,27.61c.45.9.95,2.36,1.52,4.38.56,2.02.95,3.48,1.18,4.38,5.39,17.29,12.34,29.41,20.88,36.36,8.53,6.96,19.3,10.44,32.32,10.44,16.61,0,31.09-6.28,43.43-18.85ZM302.96,80.13c-5.39,0-9.88.84-13.47,2.52-3.59,1.68-6.12,4.44-7.58,8.25-1.46,3.82-2.36,7.74-2.69,11.78-.34,4.04.11,9.32,1.35,15.82,1.23,6.51,2.53,12.46,3.87,17.85,1.35,5.39,3.25,12.12,5.72,20.2l49.83-14.48c-2.02-7.63-3.82-13.8-5.39-18.52-1.57-4.71-3.99-11.05-7.24-19.02-3.26-7.96-6.96-14.02-11.11-18.18-4.16-4.15-8.59-6.23-13.3-6.23Z"/>
  <path class="cls-1" d="M478.71,3.7c92.7,0,139.05,38.95,139.05,116.83s-46.35,118.85-139.05,118.85h-99.66v-3.37l25.93-34.68V41.75l-25.93-34.68v-3.37h99.66ZM478.71,232.65c25.36,0,44.39-10.15,57.07-30.47,12.68-20.31,19.02-47.3,19.02-80.97s-6.4-59.7-19.19-80.13c-12.79-20.42-31.76-30.64-56.9-30.64h-14.14v222.22h14.14Z"/>
  <path class="cls-1" d="M703.95,235.68v3.7h-91.58v-3.7l18.18-20.88v-108.41l-18.18-17.51v-3.7l73.4-13.47v143.09l18.18,20.88ZM634.42,48.65c-5.72-5.72-8.58-12.4-8.58-20.03s2.86-14.31,8.58-20.03S646.82,0,654.46,0s14.31,2.86,20.03,8.59,8.58,12.4,8.58,20.03-2.86,14.31-8.58,20.03c-5.72,5.72-12.41,8.59-20.03,8.59s-14.31-2.86-20.03-8.59Z"/>
  <path class="cls-1" d="M693.85,239.39v-3.7l18.18-20.88v-108.41l-18.18-17.17-.34-3.7,70.37-13.8,3.37,35.35c20.42-23.57,39.5-35.35,57.24-35.35s30.75,5.44,41.08,16.33c10.32,10.89,15.49,30.59,15.49,59.09v67.67l18.18,20.88v3.7h-91.58v-3.7l18.18-20.88v-67.67c0-29.4-11.11-44.11-33.33-44.11-9.21,0-17.62,4.49-25.25,13.47v98.31l18.18,20.88v3.7h-91.58Z"/>
  <path class="cls-1" d="M880.37,156.9c0-22.22,7.91-42.09,23.74-59.59,15.83-17.51,35.86-26.26,60.1-26.26,22.89,0,43.04,8.25,60.44,24.75,17.39,16.5,26.09,36.76,26.09,60.77,0,22.45-8.14,42.42-24.41,59.93-16.28,17.51-36.87,26.26-61.78,26.26-23.12,0-42.93-8.42-59.43-25.25-16.5-16.83-24.75-37.04-24.75-60.6ZM979.36,233.66c8.08,0,14.48-2.3,19.19-6.9,4.71-4.6,7.07-10.04,7.07-16.33,0-11.89-5.05-32.66-15.15-62.29-10.33-30.52-18.07-49.49-23.23-56.9-4.94-7.41-10.66-11.11-17.17-11.11-7.86,0-13.97,2.25-18.35,6.73-4.38,4.49-6.57,9.88-6.57,16.16,0,10.77,4.82,31.2,14.48,61.28,4.49,13.92,7.85,24.02,10.1,30.3,2.24,6.29,5.05,13.08,8.42,20.37,3.37,7.3,6.68,12.24,9.93,14.81,3.25,2.58,7.01,3.87,11.28,3.87Z"/>
</svg>